<svg xmlns="http://www.w3.org/2000/svg" xmlns:xlink="http://www.w3.org/1999/xlink" width="64" height="64"><pattern x="-184.7" y="606.3" width="69" height="69" patternUnits="userSpaceOnUse" viewBox="2.1 -70.9 69 69" overflow="visible"><g fill="#fff"><use xlink:href="#A"/><use xlink:href="#A" x="-7.7"/><use xlink:href="#A" x="-15.4"/><use xlink:href="#A" x="-23"/><use xlink:href="#A" x="-30.7"/><use xlink:href="#A" x="-38.4"/><use xlink:href="#A" x="-46"/><use xlink:href="#A" x="7.6"/><use xlink:href="#B"/><use xlink:href="#B" x="-7.6"/><use xlink:href="#B" x="-15.3"/><use xlink:href="#B" x="-22.9"/><use xlink:href="#B" x="-30.6"/><use xlink:href="#B" x="-38.3"/><use xlink:href="#B" x="-45.9"/><use xlink:href="#B" x="-53.6"/><use xlink:href="#B" y="7.7"/><use xlink:href="#B" x="-7.6" y="7.7"/><use xlink:href="#B" x="-22.9" y="7.7"/><use xlink:href="#B" x="-30.6" y="7.7"/><use xlink:href="#B" x="-38.3" y="7.7"/><use xlink:href="#B" x="-45.9" y="7.7"/><use xlink:href="#B" x="-53.6" y="7.7"/><use xlink:href="#C"/><use xlink:href="#B" x="-68.9" y="7.7"/><use xlink:href="#B" y="15.3"/><use xlink:href="#B" x="-7.6" y="15.3"/><use xlink:href="#B" x="-15.3" y="15.3"/><use xlink:href="#B" x="-22.9" y="15.3"/><use xlink:href="#B" x="-30.6" y="15.3"/><use xlink:href="#B" x="-38.3" y="15.3"/><use xlink:href="#B" x="-45.9" y="15.3"/><use xlink:href="#B" x="-53.6" y="15.3"/><use xlink:href="#B" y="23"/><use xlink:href="#B" x="-7.6" y="23"/><use xlink:href="#B" x="-15.3" y="23"/><use xlink:href="#B" x="-22.9" y="23"/><use xlink:href="#B" x="-30.6" y="23"/><use xlink:href="#B" x="-38.3" y="23"/><use xlink:href="#B" x="-45.9" y="23"/><use xlink:href="#B" x="-53.6" y="23"/><use xlink:href="#C" y="15.3"/><use xlink:href="#B" y="30.6"/><use xlink:href="#B" x="-7.6" y="30.6"/><use xlink:href="#B" x="-15.3" y="30.6"/><use xlink:href="#B" x="-22.9" y="30.6"/><use xlink:href="#B" x="-30.6" y="30.6"/><use xlink:href="#B" x="-38.3" y="30.6"/><use xlink:href="#B" x="-45.9" y="30.6"/><use xlink:href="#B" x="-53.6" y="30.6"/><use xlink:href="#B" x="-68.9" y="30.6"/><use xlink:href="#B" y="38.3"/><use xlink:href="#B" x="-7.6" y="38.3"/><use xlink:href="#B" x="-15.3" y="38.3"/><use xlink:href="#B" x="-22.9" y="38.3"/><use xlink:href="#B" x="-30.6" y="38.3"/><use xlink:href="#B" x="-38.3" y="38.3"/><use xlink:href="#B" x="-45.9" y="38.3"/><use xlink:href="#B" x="-53.6" y="38.3"/><use xlink:href="#D"/><use xlink:href="#D" x="-7.6"/><use xlink:href="#D" x="-15.3"/><use xlink:href="#D" x="-22.9"/><use xlink:href="#D" x="-30.6"/><use xlink:href="#D" x="-38.3"/><use xlink:href="#D" x="-45.9"/><use xlink:href="#D" x="-53.6"/><use xlink:href="#B" y="53.6"/><use xlink:href="#E"/><use xlink:href="#B" x="-15.3" y="53.6"/><use xlink:href="#B" x="-22.9" y="53.6"/><use xlink:href="#E" x="-23"/><use xlink:href="#B" x="-38.3" y="53.6"/><use xlink:href="#B" x="-45.9" y="53.6"/><use xlink:href="#E" x="-46"/><use xlink:href="#F"/><use xlink:href="#F" x="-23"/><use xlink:href="#G"/><use xlink:href="#G" x="-15.3"/><line x1="8.1" y1="-71.7" x2="8.1" y2="-71.5"/><line x1="8.1" y1="-71.5" x2="7.8999999999999995" y2="-71.3"/><line x1="7.8999999999999995" y1="-71.3" x2="7.8" y2="-70.89999999999999"/><line x1="7.8" y1="-70.89999999999999" x2="7.8" y2="-70.6"/><line x1="7.8" y1="-70.6" x2="7.8" y2="-70.39999999999999"/><line x1="7.8" y1="-70.39999999999999" x2="7.8999999999999995" y2="-69.99999999999999"/><line x1="7.8999999999999995" y1="-69.99999999999999" x2="8.299999999999999" y2="-69.49999999999999"/><line x1="8.299999999999999" y1="-69.49999999999999" x2="8.899999999999999" y2="-68.89999999999999"/><line x1="8.899999999999999" y1="-68.89999999999999" x2="9.399999999999999" y2="-68.99999999999999"/><line x1="9.399999999999999" y1="-68.99999999999999" x2="9.999999999999998" y2="-69.09999999999998"/><line x1="9.999999999999998" y1="-69.09999999999998" x2="10.299999999999999" y2="-69.59999999999998"/><line x1="10.299999999999999" y1="-69.59999999999998" x2="10.7" y2="-69.69999999999997"/><line x1="10.7" y1="-69.69999999999997" x2="11.1" y2="-70.19999999999997"/><line x1="11.1" y1="-70.19999999999997" x2="11.1" y2="-70.39999999999998"/><line x1="11.1" y1="-70.39999999999998" x2="11.2" y2="-70.69999999999997"/><line x1="11.2" y1="-70.69999999999997" x2="11.1" y2="-70.89999999999998"/><line x1="11.1" y1="-70.89999999999998" x2="11.1" y2="-71.19999999999997"/><line x1="11.1" y1="-71.19999999999997" x2="11.0" y2="-71.69999999999997"/><line x1="11.0" y1="-71.69999999999997" x2="9.0" y2="-72.49999999999997"/><line x1="9.0" y1="-72.49999999999997" x2="8.6" y2="-72.29999999999997"/><line x1="8.6" y1="-72.29999999999997" x2="8.299999999999999" y2="-72.09999999999997"/><line x1="8.299999999999999" y1="-72.09999999999997" x2="8.1" y2="-71.89999999999996"/><line x1="8.1" y1="-71.89999999999996" x2="8.1" y2="-71.69999999999996"/><line x1="0.39999999999999947" y1="-71.69999999999996" x2="0.39999999999999947" y2="-71.49999999999996"/><line x1="0.39999999999999947" y1="-71.49999999999996" x2="0.19999999999999946" y2="-71.39999999999996"/><line x1="0.19999999999999946" y1="-71.39999999999996" x2="0.09999999999999945" y2="-70.99999999999996"/><line x1="0.09999999999999945" y1="-70.99999999999996" x2="0.09999999999999945" y2="-70.69999999999996"/><line x1="0.09999999999999945" y1="-70.69999999999996" x2="0.09999999999999945" y2="-70.49999999999996"/><line x1="0.09999999999999945" y1="-70.49999999999996" x2="0.19999999999999946" y2="-70.09999999999995"/><line x1="0.19999999999999946" y1="-70.09999999999995" x2="0.5999999999999994" y2="-69.59999999999995"/><line x1="0.5999999999999994" y1="-69.59999999999995" x2="1.1999999999999993" y2="-68.89999999999995"/><line x1="1.1999999999999993" y1="-68.89999999999995" x2="1.6999999999999993" y2="-68.99999999999994"/><line x1="1.6999999999999993" y1="-68.99999999999994" x2="2.2999999999999994" y2="-69.09999999999994"/><line x1="2.2999999999999994" y1="-69.09999999999994" x2="2.599999999999999" y2="-69.59999999999994"/><line x1="2.599999999999999" y1="-69.59999999999994" x2="2.999999999999999" y2="-69.69999999999993"/><line x1="2.999999999999999" y1="-69.69999999999993" x2="3.399999999999999" y2="-70.19999999999993"/><line x1="3.399999999999999" y1="-70.19999999999993" x2="3.399999999999999" y2="-70.39999999999993"/><line x1="3.399999999999999" y1="-70.39999999999993" x2="3.499999999999999" y2="-70.69999999999993"/><line x1="3.499999999999999" y1="-70.69999999999993" x2="3.399999999999999" y2="-70.89999999999993"/><line x1="3.399999999999999" y1="-70.89999999999993" x2="3.399999999999999" y2="-71.19999999999993"/><line x1="3.399999999999999" y1="-71.19999999999993" x2="3.299999999999999" y2="-71.69999999999993"/><line x1="3.299999999999999" y1="-71.69999999999993" x2="1.299999999999999" y2="-72.49999999999993"/><line x1="1.299999999999999" y1="-72.49999999999993" x2="0.8999999999999989" y2="-72.29999999999993"/><line x1="0.8999999999999989" y1="-72.29999999999993" x2="0.599999999999999" y2="-72.09999999999992"/><line x1="0.599999999999999" y1="-72.09999999999992" x2="0.39999999999999897" y2="-71.89999999999992"/><line x1="0.39999999999999897" y1="-71.89999999999992" x2="0.39999999999999897" y2="-71.69999999999992"/><line x1="0.5" y1="-71.7" x2="0.5" y2="-71.5"/><line x1="0.5" y1="-71.5" x2="0.3" y2="-71.4"/><line x1="0.3" y1="-71.4" x2="0.19999999999999998" y2="-71.0"/><line x1="0.19999999999999998" y1="-71.0" x2="0.19999999999999998" y2="-70.7"/><line x1="0.19999999999999998" y1="-70.7" x2="0.19999999999999998" y2="-70.5"/><line x1="0.19999999999999998" y1="-70.5" x2="0.3" y2="-70.1"/><line x1="0.3" y1="-70.1" x2="0.7" y2="-69.6"/><line x1="0.7" y1="-69.6" x2="1.2999999999999998" y2="-68.89999999999999"/><line x1="1.2999999999999998" y1="-68.89999999999999" x2="1.7999999999999998" y2="-68.99999999999999"/><line x1="1.7999999999999998" y1="-68.99999999999999" x2="2.4" y2="-69.09999999999998"/><line x1="2.4" y1="-69.09999999999998" x2="2.6999999999999997" y2="-69.59999999999998"/><line x1="2.6999999999999997" y1="-69.59999999999998" x2="3.0999999999999996" y2="-69.69999999999997"/><line x1="3.0999999999999996" y1="-69.69999999999997" x2="3.4999999999999996" y2="-70.19999999999997"/><line x1="3.4999999999999996" y1="-70.19999999999997" x2="3.4999999999999996" y2="-70.39999999999998"/><line x1="3.4999999999999996" y1="-70.39999999999998" x2="3.5999999999999996" y2="-70.69999999999997"/><line x1="3.5999999999999996" y1="-70.69999999999997" x2="3.4999999999999996" y2="-70.89999999999998"/><line x1="3.4999999999999996" y1="-70.89999999999998" x2="3.4999999999999996" y2="-71.19999999999997"/><line x1="3.4999999999999996" y1="-71.19999999999997" x2="3.3999999999999995" y2="-71.69999999999997"/><line x1="3.3999999999999995" y1="-71.69999999999997" x2="1.3999999999999995" y2="-72.49999999999997"/><line x1="1.3999999999999995" y1="-72.49999999999997" x2="0.9999999999999994" y2="-72.29999999999997"/><line x1="0.9999999999999994" y1="-72.29999999999997" x2="0.6999999999999995" y2="-72.09999999999997"/><line x1="0.6999999999999995" y1="-72.09999999999997" x2="0.4999999999999995" y2="-71.89999999999996"/><line x1="0.4999999999999995" y1="-71.89999999999996" x2="0.4999999999999995" y2="-71.69999999999996"/><line x1="8.2" y1="-64.0" x2="8.2" y2="-63.8"/><line x1="8.2" y1="-63.8" x2="7.999999999999999" y2="-63.699999999999996"/><line x1="7.999999999999999" y1="-63.699999999999996" x2="7.8999999999999995" y2="-63.3"/><line x1="7.8999999999999995" y1="-63.3" x2="7.8999999999999995" y2="-63.0"/><line x1="7.8999999999999995" y1="-63.0" x2="7.8999999999999995" y2="-62.8"/><line x1="7.8999999999999995" y1="-62.8" x2="7.999999999999999" y2="-62.4"/><line x1="7.999999999999999" y1="-62.4" x2="8.299999999999999" y2="-61.9"/><line x1="8.299999999999999" y1="-61.9" x2="8.899999999999999" y2="-61.3"/><line x1="8.899999999999999" y1="-61.3" x2="9.399999999999999" y2="-61.4"/><line x1="9.399999999999999" y1="-61.4" x2="9.999999999999998" y2="-61.5"/><line x1="9.999999999999998" y1="-61.5" x2="10.299999999999999" y2="-62.0"/><line x1="10.299999999999999" y1="-62.0" x2="10.7" y2="-62.1"/><line x1="10.7" y1="-62.1" x2="11.1" y2="-62.6"/><line x1="11.1" y1="-62.6" x2="11.1" y2="-62.800000000000004"/><line x1="11.1" y1="-62.800000000000004" x2="11.2" y2="-63.1"/><line x1="11.2" y1="-63.1" x2="11.1" y2="-63.300000000000004"/><line x1="11.1" y1="-63.300000000000004" x2="11.1" y2="-63.6"/><line x1="11.1" y1="-63.6" x2="11.0" y2="-64.1"/><line x1="11.0" y1="-64.1" x2="9.0" y2="-64.89999999999999"/><line x1="9.0" y1="-64.89999999999999" x2="8.6" y2="-64.69999999999999"/><line x1="8.6" y1="-64.69999999999999" x2="8.299999999999999" y2="-64.49999999999999"/><line x1="8.299999999999999" y1="-64.49999999999999" x2="8.1" y2="-64.29999999999998"/><line x1="8.1" y1="-64.29999999999998" x2="8.2" y2="-63.999999999999986"/><line x1="0.5" y1="-64.0" x2="0.5" y2="-63.8"/><line x1="0.5" y1="-63.8" x2="0.3" y2="-63.699999999999996"/><line x1="0.3" y1="-63.699999999999996" x2="0.19999999999999998" y2="-63.3"/><line x1="0.19999999999999998" y1="-63.3" x2="0.19999999999999998" y2="-63.0"/><line x1="0.19999999999999998" y1="-63.0" x2="0.19999999999999998" y2="-62.8"/><line x1="0.19999999999999998" y1="-62.8" x2="0.3" y2="-62.4"/><line x1="0.3" y1="-62.4" x2="0.7" y2="-61.9"/><line x1="0.7" y1="-61.9" x2="1.2999999999999998" y2="-61.3"/><line x1="1.2999999999999998" y1="-61.3" x2="1.7999999999999998" y2="-61.4"/><line x1="1.7999999999999998" y1="-61.4" x2="2.4" y2="-61.5"/><line x1="2.4" y1="-61.5" x2="2.6999999999999997" y2="-62.0"/><line x1="2.6999999999999997" y1="-62.0" x2="3.0999999999999996" y2="-62.0"/><line x1="3.0999999999999996" y1="-62.0" x2="3.4999999999999996" y2="-62.5"/><line x1="3.4999999999999996" y1="-62.5" x2="3.4999999999999996" y2="-62.7"/><line x1="3.4999999999999996" y1="-62.7" x2="3.5999999999999996" y2="-63.0"/><line x1="3.5999999999999996" y1="-63.0" x2="3.4999999999999996" y2="-63.2"/><line x1="3.4999999999999996" y1="-63.2" x2="3.4999999999999996" y2="-63.5"/><line x1="3.4999999999999996" y1="-63.5" x2="3.3999999999999995" y2="-64.0"/><line x1="3.3999999999999995" y1="-64.0" x2="1.3999999999999995" y2="-64.8"/><line x1="1.3999999999999995" y1="-64.8" x2="0.9999999999999994" y2="-64.6"/><line x1="0.9999999999999994" y1="-64.6" x2="0.6999999999999995" y2="-64.39999999999999"/><line x1="0.6999999999999995" y1="-64.39999999999999" x2="0.4999999999999995" y2="-64.19999999999999"/><line x1="0.4999999999999995" y1="-64.19999999999999" x2="0.5" y2="-64.0"/><line x1="54.1" y1="-56.3" x2="54.1" y2="-56.099999999999994"/><line x1="54.1" y1="-56.099999999999994" x2="53.9" y2="-55.99999999999999"/><line x1="53.9" y1="-55.99999999999999" x2="53.8" y2="-55.599999999999994"/><line x1="53.8" y1="-55.599999999999994" x2="53.8" y2="-55.3"/><line x1="53.8" y1="-55.3" x2="53.8" y2="-55.099999999999994"/><line x1="53.8" y1="-55.099999999999994" x2="53.9" y2="-54.699999999999996"/><line x1="53.9" y1="-54.699999999999996" x2="54.3" y2="-54.199999999999996"/><line x1="54.3" y1="-54.199999999999996" x2="54.9" y2="-53.599999999999994"/><line x1="54.9" y1="-53.599999999999994" x2="55.4" y2="-53.699999999999996"/><line x1="55.4" y1="-53.699999999999996" x2="56.0" y2="-53.8"/><line x1="56.0" y1="-53.8" x2="56.3" y2="-54.3"/><line x1="56.3" y1="-54.3" x2="56.699999999999996" y2="-54.4"/><line x1="56.699999999999996" y1="-54.4" x2="57.099999999999994" y2="-54.9"/><line x1="57.099999999999994" y1="-54.9" x2="57.099999999999994" y2="-55.1"/><line x1="57.099999999999994" y1="-55.1" x2="57.199999999999996" y2="-55.4"/><line x1="57.199999999999996" y1="-55.4" x2="57.099999999999994" y2="-55.6"/><line x1="57.099999999999994" y1="-55.6" x2="57.099999999999994" y2="-55.9"/><line x1="57.099999999999994" y1="-55.9" x2="56.99999999999999" y2="-56.4"/><line x1="56.99999999999999" y1="-56.4" x2="54.99999999999999" y2="-57.199999999999996"/><line x1="54.99999999999999" y1="-57.199999999999996" x2="54.599999999999994" y2="-56.99999999999999"/><line x1="54.599999999999994" y1="-56.99999999999999" x2="54.3" y2="-56.79999999999999"/><line x1="54.3" y1="-56.79999999999999" x2="54.099999999999994" y2="-56.59999999999999"/><line x1="54.099999999999994" y1="-56.59999999999999" x2="54.1" y2="-56.3"/><line x1="8.2" y1="-48.7" x2="8.2" y2="-48.5"/><line x1="8.2" y1="-48.5" x2="7.999999999999999" y2="-48.4"/><line x1="7.999999999999999" y1="-48.4" x2="7.8999999999999995" y2="-48.0"/><line x1="7.8999999999999995" y1="-48.0" x2="7.8999999999999995" y2="-47.7"/><line x1="7.8999999999999995" y1="-47.7" x2="7.8999999999999995" y2="-47.5"/><line x1="7.8999999999999995" y1="-47.5" x2="7.999999999999999" y2="-47.1"/><line x1="7.999999999999999" y1="-47.1" x2="8.399999999999999" y2="-46.6"/><line x1="8.399999999999999" y1="-46.6" x2="8.899999999999999" y2="-46.0"/><line x1="8.899999999999999" y1="-46.0" x2="9.399999999999999" y2="-46.1"/><line x1="9.399999999999999" y1="-46.1" x2="9.999999999999998" y2="-46.2"/><line x1="9.999999999999998" y1="-46.2" x2="10.299999999999999" y2="-46.7"/><line x1="10.299999999999999" y1="-46.7" x2="10.7" y2="-46.800000000000004"/><line x1="10.7" y1="-46.800000000000004" x2="11.1" y2="-47.300000000000004"/><line x1="11.1" y1="-47.300000000000004" x2="11.1" y2="-47.50000000000001"/><line x1="11.1" y1="-47.50000000000001" x2="11.2" y2="-47.800000000000004"/><line x1="11.2" y1="-47.800000000000004" x2="11.1" y2="-48.00000000000001"/><line x1="11.1" y1="-48.00000000000001" x2="11.1" y2="-48.300000000000004"/><line x1="11.1" y1="-48.300000000000004" x2="11.0" y2="-48.800000000000004"/><line x1="11.0" y1="-48.800000000000004" x2="9.0" y2="-49.6"/><line x1="9.0" y1="-49.6" x2="8.6" y2="-49.4"/><line x1="8.6" y1="-49.4" x2="8.299999999999999" y2="-49.199999999999996"/><line x1="8.299999999999999" y1="-49.199999999999996" x2="8.1" y2="-48.99999999999999"/><line x1="8.1" y1="-48.99999999999999" x2="8.2" y2="-48.699999999999996"/><line x1="0.4999999999999991" y1="-48.699999999999996" x2="0.4999999999999991" y2="-48.49999999999999"/><line x1="0.4999999999999991" y1="-48.49999999999999" x2="0.2999999999999991" y2="-48.39999999999999"/><line x1="0.2999999999999991" y1="-48.39999999999999" x2="0.1999999999999991" y2="-47.99999999999999"/><line x1="0.1999999999999991" y1="-47.99999999999999" x2="0.1999999999999991" y2="-47.699999999999996"/><line x1="0.1999999999999991" y1="-47.699999999999996" x2="0.1999999999999991" y2="-47.49999999999999"/><line x1="0.1999999999999991" y1="-47.49999999999999" x2="0.2999999999999991" y2="-47.099999999999994"/><line x1="0.2999999999999991" y1="-47.099999999999994" x2="0.6999999999999991" y2="-46.599999999999994"/><line x1="0.6999999999999991" y1="-46.599999999999994" x2="1.299999999999999" y2="-45.99999999999999"/><line x1="1.299999999999999" y1="-45.99999999999999" x2="1.799999999999999" y2="-46.099999999999994"/><line x1="1.799999999999999" y1="-46.099999999999994" x2="2.399999999999999" y2="-46.199999999999996"/><line x1="2.399999999999999" y1="-46.199999999999996" x2="2.699999999999999" y2="-46.699999999999996"/><line x1="2.699999999999999" y1="-46.699999999999996" x2="3.0999999999999988" y2="-46.8"/><line x1="3.0999999999999988" y1="-46.8" x2="3.4999999999999987" y2="-47.3"/><line x1="3.4999999999999987" y1="-47.3" x2="3.4999999999999987" y2="-47.5"/><line x1="3.4999999999999987" y1="-47.5" x2="3.5999999999999988" y2="-47.8"/><line x1="3.5999999999999988" y1="-47.8" x2="3.4999999999999987" y2="-48.0"/><line x1="3.4999999999999987" y1="-48.0" x2="3.4999999999999987" y2="-48.3"/><line x1="3.4999999999999987" y1="-48.3" x2="3.3999999999999986" y2="-48.8"/><line x1="3.3999999999999986" y1="-48.8" x2="1.3999999999999986" y2="-49.599999999999994"/><line x1="1.3999999999999986" y1="-49.599999999999994" x2="0.9999999999999986" y2="-49.39999999999999"/><line x1="0.9999999999999986" y1="-49.39999999999999" x2="0.6999999999999986" y2="-49.19999999999999"/><line x1="0.6999999999999986" y1="-49.19999999999999" x2="0.4999999999999986" y2="-48.999999999999986"/><line x1="0.4999999999999986" y1="-48.999999999999986" x2="0.4999999999999991" y2="-48.699999999999996"/><line x1="0.5" y1="-41.0" x2="0.5" y2="-40.8"/><line x1="0.5" y1="-40.8" x2="0.3" y2="-40.699999999999996"/><line x1="0.3" y1="-40.699999999999996" x2="0.19999999999999998" y2="-40.3"/><line x1="0.19999999999999998" y1="-40.3" x2="0.19999999999999998" y2="-40.0"/><line x1="0.19999999999999998" y1="-40.0" x2="0.19999999999999998" y2="-39.8"/><line x1="0.19999999999999998" y1="-39.8" x2="0.3" y2="-39.4"/><line x1="0.3" y1="-39.4" x2="0.7" y2="-38.9"/><line x1="0.7" y1="-38.9" x2="1.2999999999999998" y2="-38.3"/><line x1="1.2999999999999998" y1="-38.3" x2="1.7999999999999998" y2="-38.4"/><line x1="1.7999999999999998" y1="-38.4" x2="2.4" y2="-38.5"/><line x1="2.4" y1="-38.5" x2="2.6999999999999997" y2="-39.0"/><line x1="2.6999999999999997" y1="-39.0" x2="3.0999999999999996" y2="-39.0"/><line x1="3.0999999999999996" y1="-39.0" x2="3.4999999999999996" y2="-39.5"/><line x1="3.4999999999999996" y1="-39.5" x2="3.4999999999999996" y2="-39.7"/><line x1="3.4999999999999996" y1="-39.7" x2="3.5999999999999996" y2="-40.0"/><line x1="3.5999999999999996" y1="-40.0" x2="3.4999999999999996" y2="-40.2"/><line x1="3.4999999999999996" y1="-40.2" x2="3.4999999999999996" y2="-40.5"/><line x1="3.4999999999999996" y1="-40.5" x2="3.3999999999999995" y2="-41.0"/><line x1="3.3999999999999995" y1="-41.0" x2="1.3999999999999995" y2="-41.8"/><line x1="1.3999999999999995" y1="-41.8" x2="0.9999999999999994" y2="-41.599999999999994"/><line x1="0.9999999999999994" y1="-41.599999999999994" x2="0.6999999999999995" y2="-41.39999999999999"/><line x1="0.6999999999999995" y1="-41.39999999999999" x2="0.4999999999999995" y2="-41.19999999999999"/><line x1="0.4999999999999995" y1="-41.19999999999999" x2="0.5" y2="-41.0"/><line x1="8.2" y1="-33.4" x2="8.2" y2="-33.199999999999996"/><line x1="8.2" y1="-33.199999999999996" x2="7.999999999999999" y2="-33.099999999999994"/><line x1="7.999999999999999" y1="-33.099999999999994" x2="7.8999999999999995" y2="-32.699999999999996"/><line x1="7.8999999999999995" y1="-32.699999999999996" x2="7.8999999999999995" y2="-32.4"/><line x1="7.8999999999999995" y1="-32.4" x2="7.8999999999999995" y2="-32.199999999999996"/><line x1="7.8999999999999995" y1="-32.199999999999996" x2="7.999999999999999" y2="-31.799999999999997"/><line x1="7.999999999999999" y1="-31.799999999999997" x2="8.399999999999999" y2="-31.299999999999997"/><line x1="8.399999999999999" y1="-31.299999999999997" x2="8.999999999999998" y2="-30.699999999999996"/><line x1="8.999999999999998" y1="-30.699999999999996" x2="9.499999999999998" y2="-30.799999999999997"/><line x1="9.499999999999998" y1="-30.799999999999997" x2="10.099999999999998" y2="-30.9"/><line x1="10.099999999999998" y1="-30.9" x2="10.399999999999999" y2="-31.4"/><line x1="10.399999999999999" y1="-31.4" x2="10.799999999999999" y2="-31.5"/><line x1="10.799999999999999" y1="-31.5" x2="11.2" y2="-32.0"/><line x1="11.2" y1="-32.0" x2="11.2" y2="-32.2"/><line x1="11.2" y1="-32.2" x2="11.299999999999999" y2="-32.5"/><line x1="11.299999999999999" y1="-32.5" x2="11.2" y2="-32.7"/><line x1="11.2" y1="-32.7" x2="11.2" y2="-33.0"/><line x1="11.2" y1="-33.0" x2="11.1" y2="-33.5"/><line x1="11.1" y1="-33.5" x2="9.1" y2="-34.3"/><line x1="9.1" y1="-34.3" x2="8.7" y2="-34.099999999999994"/><line x1="8.7" y1="-34.099999999999994" x2="8.399999999999999" y2="-33.89999999999999"/><line x1="8.399999999999999" y1="-33.89999999999999" x2="8.2" y2="-33.69999999999999"/><line x1="8.2" y1="-33.69999999999999" x2="8.2" y2="-33.39999999999999"/><line x1="8.2" y1="-25.7" x2="8.2" y2="-25.5"/><line x1="8.2" y1="-25.5" x2="7.999999999999999" y2="-25.4"/><line x1="7.999999999999999" y1="-25.4" x2="7.8999999999999995" y2="-25.0"/><line x1="7.8999999999999995" y1="-25.0" x2="7.8999999999999995" y2="-24.7"/><line x1="7.8999999999999995" y1="-24.7" x2="7.8999999999999995" y2="-24.5"/><line x1="7.8999999999999995" y1="-24.5" x2="7.999999999999999" y2="-24.1"/><line x1="7.999999999999999" y1="-24.1" x2="8.299999999999999" y2="-23.6"/><line x1="8.299999999999999" y1="-23.6" x2="8.899999999999999" y2="-23.0"/><line x1="8.899999999999999" y1="-23.0" x2="9.399999999999999" y2="-23.1"/><line x1="9.399999999999999" y1="-23.1" x2="9.999999999999998" y2="-23.200000000000003"/><line x1="9.999999999999998" y1="-23.200000000000003" x2="10.299999999999999" y2="-23.700000000000003"/><line x1="10.299999999999999" y1="-23.700000000000003" x2="10.7" y2="-23.800000000000004"/><line x1="10.7" y1="-23.800000000000004" x2="11.1" y2="-24.300000000000004"/><line x1="11.1" y1="-24.300000000000004" x2="11.1" y2="-24.500000000000004"/><line x1="11.1" y1="-24.500000000000004" x2="11.2" y2="-24.800000000000004"/><line x1="11.2" y1="-24.800000000000004" x2="11.1" y2="-25.000000000000004"/><line x1="11.1" y1="-25.000000000000004" x2="11.1" y2="-25.300000000000004"/><line x1="11.1" y1="-25.300000000000004" x2="11.0" y2="-25.800000000000004"/><line x1="11.0" y1="-25.800000000000004" x2="9.0" y2="-26.600000000000005"/><line x1="9.0" y1="-26.600000000000005" x2="8.6" y2="-26.400000000000006"/><line x1="8.6" y1="-26.400000000000006" x2="8.299999999999999" y2="-26.200000000000006"/><line x1="8.299999999999999" y1="-26.200000000000006" x2="8.1" y2="-26.000000000000007"/><line x1="8.1" y1="-26.000000000000007" x2="8.2" y2="-25.700000000000006"/><line x1="0.4999999999999991" y1="-25.700000000000006" x2="0.4999999999999991" y2="-25.500000000000007"/><line x1="0.4999999999999991" y1="-25.500000000000007" x2="0.2999999999999991" y2="-25.400000000000006"/><line x1="0.2999999999999991" y1="-25.400000000000006" x2="0.1999999999999991" y2="-25.000000000000007"/><line x1="0.1999999999999991" y1="-25.000000000000007" x2="0.1999999999999991" y2="-24.700000000000006"/><line x1="0.1999999999999991" y1="-24.700000000000006" x2="0.1999999999999991" y2="-24.500000000000007"/><line x1="0.1999999999999991" y1="-24.500000000000007" x2="0.2999999999999991" y2="-24.10000000000001"/><line x1="0.2999999999999991" y1="-24.10000000000001" x2="0.6999999999999991" y2="-23.60000000000001"/><line x1="0.6999999999999991" y1="-23.60000000000001" x2="1.299999999999999" y2="-23.000000000000007"/><line x1="1.299999999999999" y1="-23.000000000000007" x2="1.799999999999999" y2="-23.10000000000001"/><line x1="1.799999999999999" y1="-23.10000000000001" x2="2.399999999999999" y2="-23.20000000000001"/><line x1="2.399999999999999" y1="-23.20000000000001" x2="2.699999999999999" y2="-23.70000000000001"/><line x1="2.699999999999999" y1="-23.70000000000001" x2="3.0999999999999988" y2="-23.80000000000001"/><line x1="3.0999999999999988" y1="-23.80000000000001" x2="3.4999999999999987" y2="-24.30000000000001"/><line x1="3.4999999999999987" y1="-24.30000000000001" x2="3.4999999999999987" y2="-24.50000000000001"/><line x1="3.4999999999999987" y1="-24.50000000000001" x2="3.5999999999999988" y2="-24.80000000000001"/><line x1="3.5999999999999988" y1="-24.80000000000001" x2="3.4999999999999987" y2="-25.00000000000001"/><line x1="3.4999999999999987" y1="-25.00000000000001" x2="3.4999999999999987" y2="-25.30000000000001"/><line x1="3.4999999999999987" y1="-25.30000000000001" x2="3.3999999999999986" y2="-25.80000000000001"/><line x1="3.3999999999999986" y1="-25.80000000000001" x2="1.3999999999999986" y2="-26.600000000000012"/><line x1="1.3999999999999986" y1="-26.600000000000012" x2="0.9999999999999986" y2="-26.400000000000013"/><line x1="0.9999999999999986" y1="-26.400000000000013" x2="0.6999999999999986" y2="-26.200000000000014"/><line x1="0.6999999999999986" y1="-26.200000000000014" x2="0.4999999999999986" y2="-26.000000000000014"/><line x1="0.4999999999999986" y1="-26.000000000000014" x2="0.4999999999999991" y2="-25.700000000000006"/><line x1="8.2" y1="-18.1" x2="8.2" y2="-17.900000000000002"/><line x1="8.2" y1="-17.900000000000002" x2="7.999999999999999" y2="-17.8"/><line x1="7.999999999999999" y1="-17.8" x2="7.8999999999999995" y2="-17.400000000000002"/><line x1="7.8999999999999995" y1="-17.400000000000002" x2="7.8999999999999995" y2="-17.1"/><line x1="7.8999999999999995" y1="-17.1" x2="7.8999999999999995" y2="-16.900000000000002"/><line x1="7.8999999999999995" y1="-16.900000000000002" x2="7.999999999999999" y2="-16.500000000000004"/><line x1="7.999999999999999" y1="-16.500000000000004" x2="8.299999999999999" y2="-16.000000000000004"/><line x1="8.299999999999999" y1="-16.000000000000004" x2="8.899999999999999" y2="-15.400000000000004"/><line x1="8.899999999999999" y1="-15.400000000000004" x2="9.399999999999999" y2="-15.500000000000004"/><line x1="9.399999999999999" y1="-15.500000000000004" x2="9.999999999999998" y2="-15.600000000000003"/><line x1="9.999999999999998" y1="-15.600000000000003" x2="10.299999999999999" y2="-16.1"/><line x1="10.299999999999999" y1="-16.1" x2="10.7" y2="-16.200000000000003"/><line x1="10.7" y1="-16.200000000000003" x2="11.1" y2="-16.700000000000003"/><line x1="11.1" y1="-16.700000000000003" x2="11.1" y2="-16.900000000000002"/><line x1="11.1" y1="-16.900000000000002" x2="11.2" y2="-17.200000000000003"/><line x1="11.2" y1="-17.200000000000003" x2="11.1" y2="-17.400000000000002"/><line x1="11.1" y1="-17.400000000000002" x2="11.1" y2="-17.700000000000003"/><line x1="11.1" y1="-17.700000000000003" x2="11.0" y2="-18.200000000000003"/><line x1="11.0" y1="-18.200000000000003" x2="9.0" y2="-19.000000000000004"/><line x1="9.0" y1="-19.000000000000004" x2="8.6" y2="-18.800000000000004"/><line x1="8.6" y1="-18.800000000000004" x2="8.299999999999999" y2="-18.600000000000005"/><line x1="8.299999999999999" y1="-18.600000000000005" x2="8.1" y2="-18.400000000000006"/><line x1="8.1" y1="-18.400000000000006" x2="8.2" y2="-18.100000000000005"/><line x1="0.4999999999999991" y1="-18.100000000000005" x2="0.4999999999999991" y2="-17.900000000000006"/><line x1="0.4999999999999991" y1="-17.900000000000006" x2="0.2999999999999991" y2="-17.800000000000004"/><line x1="0.2999999999999991" y1="-17.800000000000004" x2="0.1999999999999991" y2="-17.400000000000006"/><line x1="0.1999999999999991" y1="-17.400000000000006" x2="0.1999999999999991" y2="-17.100000000000005"/><line x1="0.1999999999999991" y1="-17.100000000000005" x2="0.1999999999999991" y2="-16.900000000000006"/><line x1="0.1999999999999991" y1="-16.900000000000006" x2="0.2999999999999991" y2="-16.500000000000007"/><line x1="0.2999999999999991" y1="-16.500000000000007" x2="0.6999999999999991" y2="-16.000000000000007"/><line x1="0.6999999999999991" y1="-16.000000000000007" x2="1.299999999999999" y2="-15.400000000000007"/><line x1="1.299999999999999" y1="-15.400000000000007" x2="1.799999999999999" y2="-15.500000000000007"/><line x1="1.799999999999999" y1="-15.500000000000007" x2="2.399999999999999" y2="-15.600000000000007"/><line x1="2.399999999999999" y1="-15.600000000000007" x2="2.699999999999999" y2="-16.10000000000001"/><line x1="2.699999999999999" y1="-16.10000000000001" x2="3.0999999999999988" y2="-16.000000000000007"/><line x1="3.0999999999999988" y1="-16.000000000000007" x2="3.4999999999999987" y2="-16.500000000000007"/><line x1="3.4999999999999987" y1="-16.500000000000007" x2="3.4999999999999987" y2="-16.700000000000006"/><line x1="3.4999999999999987" y1="-16.700000000000006" x2="3.5999999999999988" y2="-17.000000000000007"/><line x1="3.5999999999999988" y1="-17.000000000000007" x2="3.4999999999999987" y2="-17.200000000000006"/><line x1="3.4999999999999987" y1="-17.200000000000006" x2="3.4999999999999987" y2="-17.500000000000007"/><line x1="3.4999999999999987" y1="-17.500000000000007" x2="3.3999999999999986" y2="-18.000000000000007"/><line x1="3.3999999999999986" y1="-18.000000000000007" x2="1.3999999999999986" y2="-18.800000000000008"/><line x1="1.3999999999999986" y1="-18.800000000000008" x2="0.9999999999999986" y2="-18.60000000000001"/><line x1="0.9999999999999986" y1="-18.60000000000001" x2="0.6999999999999986" y2="-18.40000000000001"/><line x1="0.6999999999999986" y1="-18.40000000000001" x2="0.4999999999999986" y2="-18.20000000000001"/><line x1="0.4999999999999986" y1="-18.20000000000001" x2="0.4999999999999986" y2="-18.10000000000001"/><line x1="8.2" y1="-10.4" x2="8.2" y2="-10.200000000000001"/><line x1="8.2" y1="-10.200000000000001" x2="7.999999999999999" y2="-10.100000000000001"/><line x1="7.999999999999999" y1="-10.100000000000001" x2="7.8999999999999995" y2="-9.8"/><line x1="7.8999999999999995" y1="-9.8" x2="7.8999999999999995" y2="-9.5"/><line x1="7.8999999999999995" y1="-9.5" x2="7.8999999999999995" y2="-9.3"/><line x1="7.8999999999999995" y1="-9.3" x2="7.999999999999999" y2="-8.9"/><line x1="7.999999999999999" y1="-8.9" x2="8.299999999999999" y2="-8.3"/><line x1="8.299999999999999" y1="-8.3" x2="8.899999999999999" y2="-7.700000000000001"/><line x1="8.899999999999999" y1="-7.700000000000001" x2="9.399999999999999" y2="-7.800000000000001"/><line x1="9.399999999999999" y1="-7.800000000000001" x2="9.999999999999998" y2="-7.9"/><line x1="9.999999999999998" y1="-7.9" x2="10.299999999999999" y2="-8.4"/><line x1="10.299999999999999" y1="-8.4" x2="10.7" y2="-8.5"/><line x1="10.7" y1="-8.5" x2="11.1" y2="-9.0"/><line x1="11.1" y1="-9.0" x2="11.1" y2="-9.2"/><line x1="11.1" y1="-9.2" x2="11.2" y2="-9.5"/><line x1="11.2" y1="-9.5" x2="11.1" y2="-9.7"/><line x1="11.1" y1="-9.7" x2="11.1" y2="-10.0"/><line x1="11.1" y1="-10.0" x2="11.0" y2="-10.5"/><line x1="11.0" y1="-10.5" x2="9.0" y2="-11.3"/><line x1="9.0" y1="-11.3" x2="8.6" y2="-11.100000000000001"/><line x1="8.6" y1="-11.100000000000001" x2="8.299999999999999" y2="-10.900000000000002"/><line x1="8.299999999999999" y1="-10.900000000000002" x2="8.1" y2="-10.700000000000003"/><line x1="8.1" y1="-10.700000000000003" x2="8.2" y2="-10.400000000000002"/><line x1="0.4999999999999991" y1="-10.400000000000002" x2="0.4999999999999991" y2="-10.200000000000003"/><line x1="0.4999999999999991" y1="-10.200000000000003" x2="0.2999999999999991" y2="-10.100000000000003"/><line x1="0.2999999999999991" y1="-10.100000000000003" x2="0.1999999999999991" y2="-9.800000000000002"/><line x1="0.1999999999999991" y1="-9.800000000000002" x2="0.1999999999999991" y2="-9.500000000000002"/><line x1="0.1999999999999991" y1="-9.500000000000002" x2="0.1999999999999991" y2="-9.300000000000002"/><line x1="0.1999999999999991" y1="-9.300000000000002" x2="0.2999999999999991" y2="-8.900000000000002"/><line x1="0.2999999999999991" y1="-8.900000000000002" x2="0.6999999999999991" y2="-8.400000000000002"/><line x1="0.6999999999999991" y1="-8.400000000000002" x2="1.299999999999999" y2="-7.700000000000002"/><line x1="1.299999999999999" y1="-7.700000000000002" x2="1.799999999999999" y2="-7.800000000000002"/><line x1="1.799999999999999" y1="-7.800000000000002" x2="2.399999999999999" y2="-7.900000000000001"/><line x1="2.399999999999999" y1="-7.900000000000001" x2="2.699999999999999" y2="-8.3"/><line x1="2.699999999999999" y1="-8.3" x2="3.0999999999999988" y2="-8.4"/><line x1="3.0999999999999988" y1="-8.4" x2="3.4999999999999987" y2="-8.9"/><line x1="3.4999999999999987" y1="-8.9" x2="3.4999999999999987" y2="-9.1"/><line x1="3.4999999999999987" y1="-9.1" x2="3.5999999999999988" y2="-9.4"/><line x1="3.5999999999999988" y1="-9.4" x2="3.4999999999999987" y2="-9.6"/><line x1="3.4999999999999987" y1="-9.6" x2="3.4999999999999987" y2="-9.9"/><line x1="3.4999999999999987" y1="-9.9" x2="3.3999999999999986" y2="-10.4"/><line x1="3.3999999999999986" y1="-10.4" x2="1.3999999999999986" y2="-11.200000000000001"/><line x1="1.3999999999999986" y1="-11.200000000000001" x2="0.9999999999999986" y2="-11.000000000000002"/><line x1="0.9999999999999986" y1="-11.000000000000002" x2="0.6999999999999986" y2="-10.800000000000002"/><line x1="0.6999999999999986" y1="-10.800000000000002" x2="0.4999999999999986" y2="-10.600000000000003"/><line x1="0.4999999999999986" y1="-10.600000000000003" x2="0.4999999999999991" y2="-10.400000000000002"/><line x1="69.4" y1="-2.8000000000000043" x2="69.4" y2="-2.600000000000004"/><line x1="69.4" y1="-2.600000000000004" x2="69.2" y2="-2.500000000000004"/><line x1="69.2" y1="-2.500000000000004" x2="69.10000000000001" y2="-2.100000000000004"/><line x1="69.10000000000001" y1="-2.100000000000004" x2="69.10000000000001" y2="-1.800000000000004"/><line x1="69.10000000000001" y1="-1.800000000000004" x2="69.10000000000001" y2="-1.600000000000004"/><line x1="69.10000000000001" y1="-1.600000000000004" x2="69.2" y2="-1.2000000000000042"/><line x1="69.2" y1="-1.2000000000000042" x2="69.60000000000001" y2="-0.7000000000000042"/><line x1="69.60000000000001" y1="-0.7000000000000042" x2="70.2" y2="-4.218847493575595e-15"/><line x1="70.2" y1="-4.218847493575595e-15" x2="70.7" y2="-0.10000000000000422"/><line x1="70.7" y1="-0.10000000000000422" x2="71.3" y2="-0.20000000000000423"/><line x1="71.3" y1="-0.20000000000000423" x2="71.6" y2="-0.7000000000000042"/><line x1="71.6" y1="-0.7000000000000042" x2="72.0" y2="-0.8000000000000042"/><line x1="72.0" y1="-0.8000000000000042" x2="72.4" y2="-1.3000000000000043"/><line x1="72.4" y1="-1.3000000000000043" x2="72.4" y2="-1.5000000000000042"/><line x1="72.4" y1="-1.5000000000000042" x2="72.5" y2="-1.8000000000000043"/><line x1="72.5" y1="-1.8000000000000043" x2="72.4" y2="-2.0000000000000044"/><line x1="72.4" y1="-2.0000000000000044" x2="72.4" y2="-2.3000000000000043"/><line x1="72.4" y1="-2.3000000000000043" x2="72.30000000000001" y2="-2.8000000000000043"/><line x1="72.30000000000001" y1="-2.8000000000000043" x2="70.30000000000001" y2="-3.600000000000004"/><line x1="70.30000000000001" y1="-3.600000000000004" x2="69.9" y2="-3.400000000000004"/><line x1="69.9" y1="-3.400000000000004" x2="69.60000000000001" y2="-3.2000000000000037"/><line x1="69.60000000000001" y1="-3.2000000000000037" x2="69.4" y2="-3.0000000000000036"/><line x1="69.4" y1="-3.0000000000000036" x2="69.4" y2="-2.8000000000000034"/><line x1="54.1" y1="-2.8" x2="54.1" y2="-2.5999999999999996"/><line x1="54.1" y1="-2.5999999999999996" x2="53.9" y2="-2.4999999999999996"/><line x1="53.9" y1="-2.4999999999999996" x2="53.8" y2="-2.0999999999999996"/><line x1="53.8" y1="-2.0999999999999996" x2="53.8" y2="-1.7999999999999996"/><line x1="53.8" y1="-1.7999999999999996" x2="53.8" y2="-1.5999999999999996"/><line x1="53.8" y1="-1.5999999999999996" x2="53.9" y2="-1.1999999999999997"/><line x1="53.9" y1="-1.1999999999999997" x2="54.3" y2="-0.6999999999999997"/><line x1="54.3" y1="-0.6999999999999997" x2="54.9" y2="-0.09999999999999976"/><line x1="54.9" y1="-0.09999999999999976" x2="55.4" y2="-0.19999999999999976"/><line x1="55.4" y1="-0.19999999999999976" x2="56.0" y2="-0.29999999999999977"/><line x1="56.0" y1="-0.29999999999999977" x2="56.3" y2="-0.7999999999999998"/><line x1="56.3" y1="-0.7999999999999998" x2="56.699999999999996" y2="-0.8999999999999998"/><line x1="56.699999999999996" y1="-0.8999999999999998" x2="57.099999999999994" y2="-1.1999999999999997"/><line x1="57.099999999999994" y1="-1.1999999999999997" x2="57.099999999999994" y2="-1.3999999999999997"/><line x1="57.099999999999994" y1="-1.3999999999999997" x2="57.199999999999996" y2="-1.6999999999999997"/><line x1="57.199999999999996" y1="-1.6999999999999997" x2="57.099999999999994" y2="-1.8999999999999997"/><line x1="57.099999999999994" y1="-1.8999999999999997" x2="57.099999999999994" y2="-2.1999999999999997"/><line x1="57.099999999999994" y1="-2.1999999999999997" x2="56.99999999999999" y2="-2.6999999999999997"/><line x1="56.99999999999999" y1="-2.6999999999999997" x2="54.99999999999999" y2="-3.5"/><line x1="54.99999999999999" y1="-3.5" x2="54.599999999999994" y2="-3.3"/><line x1="54.599999999999994" y1="-3.3" x2="54.3" y2="-3.0999999999999996"/><line x1="54.3" y1="-3.0999999999999996" x2="54.099999999999994" y2="-2.8999999999999995"/><line x1="54.099999999999994" y1="-2.8999999999999995" x2="54.099999999999994" y2="-2.7999999999999994"/><line x1="46.49999999999999" y1="-2.7999999999999994" x2="46.49999999999999" y2="-2.599999999999999"/><line x1="46.49999999999999" y1="-2.599999999999999" x2="46.29999999999999" y2="-2.499999999999999"/><line x1="46.29999999999999" y1="-2.499999999999999" x2="46.19999999999999" y2="-2.099999999999999"/><line x1="46.19999999999999" y1="-2.099999999999999" x2="46.19999999999999" y2="-1.7999999999999992"/><line x1="46.19999999999999" y1="-1.7999999999999992" x2="46.19999999999999" y2="-1.5999999999999992"/><line x1="46.19999999999999" y1="-1.5999999999999992" x2="46.29999999999999" y2="-1.1999999999999993"/><line x1="46.29999999999999" y1="-1.1999999999999993" x2="46.69999999999999" y2="-0.6999999999999993"/><line x1="46.69999999999999" y1="-0.6999999999999993" x2="47.19999999999999" y2="6.661338147750939e-16"/><line x1="47.19999999999999" y1="6.661338147750939e-16" x2="47.69999999999999" y2="-0.09999999999999934"/><line x1="47.69999999999999" y1="-0.09999999999999934" x2="48.29999999999999" y2="-0.19999999999999934"/><line x1="48.29999999999999" y1="-0.19999999999999934" x2="48.59999999999999" y2="-0.6999999999999993"/><line x1="48.59999999999999" y1="-0.6999999999999993" x2="48.999999999999986" y2="-0.7999999999999993"/><line x1="48.999999999999986" y1="-0.7999999999999993" x2="49.399999999999984" y2="-1.2999999999999994"/><line x1="49.399999999999984" y1="-1.2999999999999994" x2="49.399999999999984" y2="-1.4999999999999993"/><line x1="49.399999999999984" y1="-1.4999999999999993" x2="49.499999999999986" y2="-1.7999999999999994"/><line x1="49.499999999999986" y1="-1.7999999999999994" x2="49.399999999999984" y2="-1.9999999999999993"/><line x1="49.399999999999984" y1="-1.9999999999999993" x2="49.399999999999984" y2="-2.2999999999999994"/><line x1="49.399999999999984" y1="-2.2999999999999994" x2="49.29999999999998" y2="-2.7999999999999994"/><line x1="49.29999999999998" y1="-2.7999999999999994" x2="47.29999999999998" y2="-3.5999999999999996"/><line x1="47.29999999999998" y1="-3.5999999999999996" x2="46.899999999999984" y2="-3.3999999999999995"/><line x1="46.899999999999984" y1="-3.3999999999999995" x2="46.59999999999999" y2="-3.1999999999999993"/><line x1="46.59999999999999" y1="-3.1999999999999993" x2="46.399999999999984" y2="-2.999999999999999"/><line x1="46.399999999999984" y1="-2.999999999999999" x2="46.499999999999986" y2="-2.799999999999999"/><line x1="23.5" y1="-2.8" x2="23.5" y2="-2.5999999999999996"/><line x1="23.5" y1="-2.5999999999999996" x2="23.3" y2="-2.4999999999999996"/><line x1="23.3" y1="-2.4999999999999996" x2="23.2" y2="-2.0999999999999996"/><line x1="23.2" y1="-2.0999999999999996" x2="23.2" y2="-1.7999999999999996"/><line x1="23.2" y1="-1.7999999999999996" x2="23.2" y2="-1.5999999999999996"/><line x1="23.2" y1="-1.5999999999999996" x2="23.3" y2="-1.1999999999999997"/><line x1="23.3" y1="-1.1999999999999997" x2="23.7" y2="-0.6999999999999997"/><line x1="23.7" y1="-0.6999999999999997" x2="24.3" y2="2.220446049250313e-16"/><line x1="24.3" y1="2.220446049250313e-16" x2="24.8" y2="-0.09999999999999978"/><line x1="24.8" y1="-0.09999999999999978" x2="25.400000000000002" y2="-0.1999999999999998"/><line x1="25.400000000000002" y1="-0.1999999999999998" x2="25.700000000000003" y2="-0.6999999999999997"/><line x1="25.700000000000003" y1="-0.6999999999999997" x2="26.1" y2="-0.7999999999999997"/><line x1="26.1" y1="-0.7999999999999997" x2="26.5" y2="-1.2999999999999998"/><line x1="26.5" y1="-1.2999999999999998" x2="26.5" y2="-1.4999999999999998"/><line x1="26.5" y1="-1.4999999999999998" x2="26.6" y2="-1.7999999999999998"/><line x1="26.6" y1="-1.7999999999999998" x2="26.5" y2="-1.9999999999999998"/><line x1="26.5" y1="-1.9999999999999998" x2="26.5" y2="-2.3"/><line x1="26.5" y1="-2.3" x2="26.4" y2="-2.8"/><line x1="26.4" y1="-2.8" x2="24.4" y2="-3.5999999999999996"/><line x1="24.4" y1="-3.5999999999999996" x2="24.0" y2="-3.3999999999999995"/><line x1="24.0" y1="-3.3999999999999995" x2="23.7" y2="-3.1999999999999993"/><line x1="23.7" y1="-3.1999999999999993" x2="23.5" y2="-2.999999999999999"/><line x1="23.5" y1="-2.999999999999999" x2="23.5" y2="-2.799999999999999"/><line x1="8.2" y1="-2.8" x2="8.2" y2="-2.5999999999999996"/><line x1="8.2" y1="-2.5999999999999996" x2="7.999999999999999" y2="-2.4999999999999996"/><line x1="7.999999999999999" y1="-2.4999999999999996" x2="7.8999999999999995" y2="-2.0999999999999996"/><line x1="7.8999999999999995" y1="-2.0999999999999996" x2="7.8999999999999995" y2="-1.7999999999999996"/><line x1="7.8999999999999995" y1="-1.7999999999999996" x2="7.8999999999999995" y2="-1.5999999999999996"/><line x1="7.8999999999999995" y1="-1.5999999999999996" x2="7.999999999999999" y2="-1.1999999999999997"/><line x1="7.999999999999999" y1="-1.1999999999999997" x2="8.299999999999999" y2="-0.6999999999999997"/><line x1="8.299999999999999" y1="-0.6999999999999997" x2="8.899999999999999" y2="2.220446049250313e-16"/><line x1="8.899999999999999" y1="2.220446049250313e-16" x2="9.399999999999999" y2="-0.09999999999999978"/><line x1="9.399999999999999" y1="-0.09999999999999978" x2="9.999999999999998" y2="-0.1999999999999998"/><line x1="9.999999999999998" y1="-0.1999999999999998" x2="10.299999999999999" y2="-0.6999999999999997"/><line x1="10.299999999999999" y1="-0.6999999999999997" x2="10.7" y2="-0.7999999999999997"/><line x1="10.7" y1="-0.7999999999999997" x2="11.1" y2="-1.2999999999999998"/><line x1="11.1" y1="-1.2999999999999998" x2="11.1" y2="-1.4999999999999998"/><line x1="11.1" y1="-1.4999999999999998" x2="11.2" y2="-1.7999999999999998"/><line x1="11.2" y1="-1.7999999999999998" x2="11.1" y2="-1.9999999999999998"/><line x1="11.1" y1="-1.9999999999999998" x2="11.1" y2="-2.3"/><line x1="11.1" y1="-2.3" x2="11.0" y2="-2.8"/><line x1="11.0" y1="-2.8" x2="9.0" y2="-3.5999999999999996"/><line x1="9.0" y1="-3.5999999999999996" x2="8.7" y2="-3.3999999999999995"/><line x1="8.7" y1="-3.3999999999999995" x2="8.399999999999999" y2="-3.0999999999999996"/><line x1="8.399999999999999" y1="-3.0999999999999996" x2="8.2" y2="-2.8999999999999995"/><line x1="8.2" y1="-2.8999999999999995" x2="8.2" y2="-2.7999999999999994"/><line x1="0.4999999999999991" y1="-2.7999999999999994" x2="0.4999999999999991" y2="-2.599999999999999"/><line x1="0.4999999999999991" y1="-2.599999999999999" x2="0.2999999999999991" y2="-2.499999999999999"/><line x1="0.2999999999999991" y1="-2.499999999999999" x2="0.1999999999999991" y2="-2.099999999999999"/><line x1="0.1999999999999991" y1="-2.099999999999999" x2="0.1999999999999991" y2="-1.7999999999999992"/><line x1="0.1999999999999991" y1="-1.7999999999999992" x2="0.1999999999999991" y2="-1.5999999999999992"/><line x1="0.1999999999999991" y1="-1.5999999999999992" x2="0.2999999999999991" y2="-1.1999999999999993"/><line x1="0.2999999999999991" y1="-1.1999999999999993" x2="0.6999999999999991" y2="-0.6999999999999993"/><line x1="0.6999999999999991" y1="-0.6999999999999993" x2="1.299999999999999" y2="6.661338147750939e-16"/><line x1="1.299999999999999" y1="6.661338147750939e-16" x2="1.799999999999999" y2="-0.09999999999999934"/><line x1="1.799999999999999" y1="-0.09999999999999934" x2="2.399999999999999" y2="-0.19999999999999934"/><line x1="2.399999999999999" y1="-0.19999999999999934" x2="2.699999999999999" y2="-0.6999999999999993"/><line x1="2.699999999999999" y1="-0.6999999999999993" x2="3.0999999999999988" y2="-0.7999999999999993"/><line x1="3.0999999999999988" y1="-0.7999999999999993" x2="3.4999999999999987" y2="-1.1999999999999993"/><line x1="3.4999999999999987" y1="-1.1999999999999993" x2="3.4999999999999987" y2="-1.3999999999999992"/><line x1="3.4999999999999987" y1="-1.3999999999999992" x2="3.5999999999999988" y2="-1.6999999999999993"/><line x1="3.5999999999999988" y1="-1.6999999999999993" x2="3.4999999999999987" y2="-1.8999999999999992"/><line x1="3.4999999999999987" y1="-1.8999999999999992" x2="3.4999999999999987" y2="-2.1999999999999993"/><line x1="3.4999999999999987" y1="-2.1999999999999993" x2="3.3999999999999986" y2="-2.6999999999999993"/><line x1="3.3999999999999986" y1="-2.6999999999999993" x2="1.3999999999999986" y2="-3.499999999999999"/><line x1="1.3999999999999986" y1="-3.499999999999999" x2="0.9999999999999986" y2="-3.399999999999999"/><line x1="0.9999999999999986" y1="-3.399999999999999" x2="0.6999999999999986" y2="-3.099999999999999"/><line x1="0.6999999999999986" y1="-3.099999999999999" x2="0.4999999999999986" y2="-2.899999999999999"/><line x1="0.4999999999999986" y1="-2.899999999999999" x2="0.4999999999999986" y2="-2.799999999999999"/></g><line x1="71.1" y1="-1.9" x2="2.0999999999999943" y2="-1.9" fill="#f7bc60"/><line x1="2.0999999999999943" y1="-1.9" x2="2.0999999999999943" y2="-70.9" fill="#f7bc60"/><line x1="2.0999999999999943" y1="-70.9" x2="71.1" y2="-70.9" fill="#f7bc60"/><line x1="71.1" y1="-70.9" x2="71.1" y2="-1.9" fill="#f7bc60"/></pattern><g transform="matrix(1.431095 0 0 1.431095 -25.894434 1.78665)"><g fill="#a7a9ac"><line x1="18.094" y1="30.35" x2="20.05" y2="31.227"/><line x1="20.05" y1="31.227" x2="32.35" y2="6.097000000000001"/><line x1="32.35" y1="6.097000000000001" x2="30.35" y2="5.384000000000001"/><line x1="30.35" y1="5.384000000000001" x2="18.094" y2="30.35"/><line x1="26.5" y1="25.014000000000003" x2="26.372" y2="25.051000000000002"/><line x1="26.372" y1="25.051000000000002" x2="25.842" y2="26.129"/><line x1="25.842" y1="26.129" x2="38.306" y2="22.382"/><line x1="38.306" y1="22.382" x2="32.622" y2="12.294000000000002"/><line x1="32.622" y1="12.294000000000002" x2="32.182" y2="13.171000000000003"/><line x1="32.182" y1="13.171000000000003" x2="32.237" y2="13.271000000000003"/><line x1="32.237" y1="13.271000000000003" x2="37.062000000000005" y2="21.824000000000005"/><line x1="37.062000000000005" y1="21.824000000000005" x2="26.5" y2="25.014000000000003"/><line x1="36.187" y1="20.262" x2="32.129999999999995" y2="24.648"/><line x1="32.129999999999995" y1="24.648" x2="32.092999999999996" y2="24.483999999999998"/><line x1="32.092999999999996" y1="24.483999999999998" x2="31.964999999999996" y2="23.534"/><line x1="31.964999999999996" y1="23.534" x2="35.199999999999996" y2="18.49"/><line x1="35.199999999999996" y1="18.49" x2="36.187" y2="20.262"/></g><line x1="51.43" y1="34.846" x2="62.798" y2="23.057999999999996" fill="#a7a9ac"/><line x1="62.798" y1="23.057999999999996" x2="61.976" y2="25.057999999999996" fill="#a7a9ac"/><line x1="61.976" y1="25.057999999999996" x2="50.608" y2="36.827999999999996" fill="#a7a9ac"/><line x1="50.608" y1="36.827999999999996" x2="38.748" y2="25.367999999999995" fill="#a7a9ac"/><line x1="38.748" y1="25.367999999999995" x2="39.57" y2="23.367999999999995" fill="#a7a9ac"/><line x1="39.57" y1="23.367999999999995" x2="51.43" y2="34.846" fill="#a7a9ac"/><line x1="50.936" y1="11.6" x2="39.586" y2="23.369999999999997" fill="#0066b3"/><line x1="39.586" y1="23.369999999999997" x2="51.446" y2="34.83" fill="#0066b3"/><line x1="51.446" y1="34.83" x2="62.815999999999995" y2="23.029999999999998" fill="#0066b3"/><line x1="62.815999999999995" y1="23.029999999999998" x2="50.936" y2="11.6" fill="#0066b3"/><line x1="44.028" y1="23.259999999999998" x2="51.082" y2="15.967999999999998" fill="#0066b3"/><line x1="51.082" y1="15.967999999999998" x2="58.382" y2="23.022" fill="#0066b3"/><line x1="58.382" y1="23.022" x2="51.327999999999996" y2="30.314" fill="#0066b3"/><line x1="51.327999999999996" y1="30.314" x2="44.028" y2="23.259999999999998" fill="#0066b3"/><line x1="44.028" y1="23.26" x2="44.647999999999996" y2="23.863000000000003" fill="#a7a9ac"/><line x1="44.647999999999996" y1="23.863000000000003" x2="50.294999999999995" y2="17.996000000000002" fill="#a7a9ac"/><line x1="50.294999999999995" y1="17.996000000000002" x2="56.995" y2="24.466" fill="#a7a9ac"/><line x1="56.995" y1="24.466" x2="58.394999999999996" y2="23.022000000000002" fill="#a7a9ac"/><line x1="58.394999999999996" y1="23.022000000000002" x2="51.102999999999994" y2="15.968000000000002" fill="#a7a9ac"/><line x1="51.102999999999994" y1="15.968000000000002" x2="44.028" y2="23.26" fill="#a7a9ac"/><line x1="32.35" y1="6.098" x2="20.05" y2="31.246" fill="#ed1c24"/><line x1="20.05" y1="31.246" x2="42.694" y2="24.445999999999998" fill="#ed1c24"/><line x1="42.694" y1="24.445999999999998" x2="32.35" y2="6.098" fill="#ed1c24"/><line x1="32.624" y1="12.294" x2="38.308" y2="22.381999999999998" fill="#ed1c24"/><line x1="38.308" y1="22.381999999999998" x2="25.86" y2="26.1" fill="#ed1c24"/><line x1="25.86" y1="26.1" x2="32.624" y2="12.294" fill="#ed1c24"/><line x1="38.654" y1="17.265" x2="40.134" y2="17.119" fill="#fff"/><line x1="40.134" y1="17.119" x2="44.758" y2="17.979" fill="#fff"/><line x1="44.758" y1="17.979" x2="46.458000000000006" y2="16.206" fill="#fff"/><line x1="46.458000000000006" y1="16.206" x2="40.06100000000001" y2="15.017999999999999" fill="#fff"/><line x1="40.06100000000001" y1="15.017999999999999" x2="37.53900000000001" y2="15.292000000000002" fill="#fff"/><line x1="37.53900000000001" y1="15.292000000000002" x2="38.654" y2="17.265" fill="#fff"/><line x1="34.048" y1="16.479" x2="28.711000000000002" y2="23.916999999999998" fill="#fff"/><line x1="28.711000000000002" y1="23.916999999999998" x2="40.609" y2="32.067" fill="#fff"/><line x1="40.609" y1="32.067" x2="51.977000000000004" y2="23.185000000000002" fill="#fff"/><line x1="51.977000000000004" y1="23.185000000000002" x2="49.839000000000006" y2="18.488000000000003" fill="#fff"/><line x1="49.839000000000006" y1="18.488000000000003" x2="47.883" y2="20.488000000000003" fill="#fff"/><line x1="47.883" y1="20.488000000000003" x2="48.687000000000005" y2="22.974000000000004" fill="#fff"/><line x1="48.687000000000005" y1="22.974000000000004" x2="40.499" y2="29.371000000000002" fill="#fff"/><line x1="40.499" y1="29.371000000000002" x2="31.929000000000002" y2="23.504" fill="#fff"/><line x1="31.929000000000002" y1="23.504" x2="35.164" y2="18.46" fill="#fff"/><line x1="35.164" y1="18.46" x2="34.048" y2="16.479" fill="#fff"/><line x1="47.884" y1="20.5" x2="48.706" y2="23.004" fill="#a7a9ac"/><line x1="48.706" y1="23.004" x2="48.633" y2="23.974" fill="#a7a9ac"/><line x1="48.633" y1="23.974" x2="48.596000000000004" y2="24.12" fill="#a7a9ac"/><line x1="48.596000000000004" y1="24.12" x2="46.896" y2="21.543" fill="#a7a9ac"/><line x1="46.896" y1="21.543" x2="47.884" y2="20.5" fill="#a7a9ac"/><line x1="39.824" y1="19.385" x2="40.208" y2="19.367" fill="#a7a9ac"/><line x1="40.208" y1="19.367" x2="43.15" y2="19.667" fill="#a7a9ac"/><line x1="43.15" y1="19.667" x2="44.757999999999996" y2="17.987000000000002" fill="#a7a9ac"/><line x1="44.757999999999996" y1="17.987000000000002" x2="40.13399999999999" y2="17.127000000000002" fill="#a7a9ac"/><line x1="40.13399999999999" y1="17.127000000000002" x2="38.653999999999996" y2="17.273000000000003" fill="#a7a9ac"/><line x1="38.653999999999996" y1="17.273000000000003" x2="39.824" y2="19.385" fill="#a7a9ac"/><line x1="51.959999999999994" y1="23.185000000000002" x2="40.59199999999999" y2="32.067" fill="#a7a9ac"/><line x1="40.59199999999999" y1="32.067" x2="28.693999999999992" y2="23.917" fill="#a7a9ac"/><line x1="28.693999999999992" y1="23.917" x2="28.766999999999992" y2="26.293000000000003" fill="#a7a9ac"/><line x1="28.766999999999992" y1="26.293000000000003" x2="40.66499999999999" y2="34.443000000000005" fill="#a7a9ac"/><line x1="40.66499999999999" y1="34.443000000000005" x2="52.032999999999994" y2="25.561000000000007" fill="#a7a9ac"/><line x1="52.032999999999994" y1="25.561000000000007" x2="51.959999999999994" y2="23.185000000000002" fill="#a7a9ac"/></g><defs><line x1="61.8" y1="-71.7" x2="61.8" y2="-71.5" id="A"/><line x1="61.8" y1="-71.5" x2="61.599999999999994" y2="-71.4" id="A"/><line x1="61.599999999999994" y1="-71.4" x2="61.49999999999999" y2="-71.0" id="A"/><line x1="61.49999999999999" y1="-71.0" x2="61.49999999999999" y2="-70.7" id="A"/><line x1="61.49999999999999" y1="-70.7" x2="61.49999999999999" y2="-70.5" id="A"/><line x1="61.49999999999999" y1="-70.5" x2="61.599999999999994" y2="-70.1" id="A"/><line x1="61.599999999999994" y1="-70.1" x2="61.99999999999999" y2="-69.6" id="A"/><line x1="61.99999999999999" y1="-69.6" x2="62.599999999999994" y2="-69.0" id="A"/><line x1="62.599999999999994" y1="-69.0" x2="63.099999999999994" y2="-69.1" id="A"/><line x1="63.099999999999994" y1="-69.1" x2="63.699999999999996" y2="-69.19999999999999" id="A"/><line x1="63.699999999999996" y1="-69.19999999999999" x2="63.99999999999999" y2="-69.69999999999999" id="A"/><line x1="63.99999999999999" y1="-69.69999999999999" x2="64.39999999999999" y2="-69.79999999999998" id="A"/><line x1="64.39999999999999" y1="-69.79999999999998" x2="64.8" y2="-70.29999999999998" id="A"/><line x1="64.8" y1="-70.29999999999998" x2="64.8" y2="-70.49999999999999" id="A"/><line x1="64.8" y1="-70.49999999999999" x2="64.89999999999999" y2="-70.79999999999998" id="A"/><line x1="64.89999999999999" y1="-70.79999999999998" x2="64.8" y2="-70.99999999999999" id="A"/><line x1="64.8" y1="-70.99999999999999" x2="64.8" y2="-71.29999999999998" id="A"/><line x1="64.8" y1="-71.29999999999998" x2="64.7" y2="-71.79999999999998" id="A"/><line x1="64.7" y1="-71.79999999999998" x2="62.7" y2="-72.59999999999998" id="A"/><line x1="62.7" y1="-72.59999999999998" x2="62.300000000000004" y2="-72.39999999999998" id="A"/><line x1="62.300000000000004" y1="-72.39999999999998" x2="62.00000000000001" y2="-72.19999999999997" id="A"/><line x1="62.00000000000001" y1="-72.19999999999997" x2="61.800000000000004" y2="-71.99999999999997" id="A"/><line x1="61.800000000000004" y1="-71.99999999999997" x2="61.800000000000004" y2="-71.69999999999997" id="A"/><line x1="69.4" y1="-64.0" x2="69.4" y2="-63.8" id="B"/><line x1="69.4" y1="-63.8" x2="69.2" y2="-63.699999999999996" id="B"/><line x1="69.2" y1="-63.699999999999996" x2="69.10000000000001" y2="-63.3" id="B"/><line x1="69.10000000000001" y1="-63.3" x2="69.10000000000001" y2="-63.0" id="B"/><line x1="69.10000000000001" y1="-63.0" x2="69.10000000000001" y2="-62.8" id="B"/><line x1="69.10000000000001" y1="-62.8" x2="69.2" y2="-62.4" id="B"/><line x1="69.2" y1="-62.4" x2="69.60000000000001" y2="-61.9" id="B"/><line x1="69.60000000000001" y1="-61.9" x2="70.2" y2="-61.3" id="B"/><line x1="70.2" y1="-61.3" x2="70.7" y2="-61.4" id="B"/><line x1="70.7" y1="-61.4" x2="71.3" y2="-61.5" id="B"/><line x1="71.3" y1="-61.5" x2="71.6" y2="-62.0" id="B"/><line x1="71.6" y1="-62.0" x2="72.0" y2="-62.1" id="B"/><line x1="72.0" y1="-62.1" x2="72.4" y2="-62.6" id="B"/><line x1="72.4" y1="-62.6" x2="72.4" y2="-62.800000000000004" id="B"/><line x1="72.4" y1="-62.800000000000004" x2="72.5" y2="-63.1" id="B"/><line x1="72.5" y1="-63.1" x2="72.4" y2="-63.300000000000004" id="B"/><line x1="72.4" y1="-63.300000000000004" x2="72.4" y2="-63.6" id="B"/><line x1="72.4" y1="-63.6" x2="72.30000000000001" y2="-64.1" id="B"/><line x1="72.30000000000001" y1="-64.1" x2="70.30000000000001" y2="-64.89999999999999" id="B"/><line x1="70.30000000000001" y1="-64.89999999999999" x2="69.9" y2="-64.69999999999999" id="B"/><line x1="69.9" y1="-64.69999999999999" x2="69.60000000000001" y2="-64.49999999999999" id="B"/><line x1="69.60000000000001" y1="-64.49999999999999" x2="69.4" y2="-64.29999999999998" id="B"/><line x1="69.4" y1="-64.29999999999998" x2="69.4" y2="-64.0" id="B"/><line x1="8.2" y1="-56.3" x2="8.2" y2="-56.099999999999994" id="C"/><line x1="8.2" y1="-56.099999999999994" x2="7.999999999999999" y2="-55.99999999999999" id="C"/><line x1="7.999999999999999" y1="-55.99999999999999" x2="7.8999999999999995" y2="-55.599999999999994" id="C"/><line x1="7.8999999999999995" y1="-55.599999999999994" x2="7.8999999999999995" y2="-55.3" id="C"/><line x1="7.8999999999999995" y1="-55.3" x2="7.8999999999999995" y2="-55.099999999999994" id="C"/><line x1="7.8999999999999995" y1="-55.099999999999994" x2="7.999999999999999" y2="-54.699999999999996" id="C"/><line x1="7.999999999999999" y1="-54.699999999999996" x2="8.399999999999999" y2="-54.199999999999996" id="C"/><line x1="8.399999999999999" y1="-54.199999999999996" x2="8.999999999999998" y2="-53.599999999999994" id="C"/><line x1="8.999999999999998" y1="-53.599999999999994" x2="9.499999999999998" y2="-53.699999999999996" id="C"/><line x1="9.499999999999998" y1="-53.699999999999996" x2="10.099999999999998" y2="-53.8" id="C"/><line x1="10.099999999999998" y1="-53.8" x2="10.399999999999999" y2="-54.3" id="C"/><line x1="10.399999999999999" y1="-54.3" x2="10.799999999999999" y2="-54.4" id="C"/><line x1="10.799999999999999" y1="-54.4" x2="11.2" y2="-54.9" id="C"/><line x1="11.2" y1="-54.9" x2="11.2" y2="-55.1" id="C"/><line x1="11.2" y1="-55.1" x2="11.299999999999999" y2="-55.4" id="C"/><line x1="11.299999999999999" y1="-55.4" x2="11.2" y2="-55.6" id="C"/><line x1="11.2" y1="-55.6" x2="11.2" y2="-55.9" id="C"/><line x1="11.2" y1="-55.9" x2="11.1" y2="-56.4" id="C"/><line x1="11.1" y1="-56.4" x2="9.1" y2="-57.199999999999996" id="C"/><line x1="9.1" y1="-57.199999999999996" x2="8.7" y2="-56.99999999999999" id="C"/><line x1="8.7" y1="-56.99999999999999" x2="8.399999999999999" y2="-56.79999999999999" id="C"/><line x1="8.399999999999999" y1="-56.79999999999999" x2="8.2" y2="-56.59999999999999" id="C"/><line x1="8.2" y1="-56.59999999999999" x2="8.2" y2="-56.29999999999999" id="C"/><line x1="69.4" y1="-18.1" x2="69.4" y2="-17.900000000000002" id="D"/><line x1="69.4" y1="-17.900000000000002" x2="69.2" y2="-17.8" id="D"/><line x1="69.2" y1="-17.8" x2="69.10000000000001" y2="-17.400000000000002" id="D"/><line x1="69.10000000000001" y1="-17.400000000000002" x2="69.10000000000001" y2="-17.1" id="D"/><line x1="69.10000000000001" y1="-17.1" x2="69.10000000000001" y2="-16.900000000000002" id="D"/><line x1="69.10000000000001" y1="-16.900000000000002" x2="69.2" y2="-16.500000000000004" id="D"/><line x1="69.2" y1="-16.500000000000004" x2="69.60000000000001" y2="-16.000000000000004" id="D"/><line x1="69.60000000000001" y1="-16.000000000000004" x2="70.2" y2="-15.400000000000004" id="D"/><line x1="70.2" y1="-15.400000000000004" x2="70.7" y2="-15.500000000000004" id="D"/><line x1="70.7" y1="-15.500000000000004" x2="71.3" y2="-15.600000000000003" id="D"/><line x1="71.3" y1="-15.600000000000003" x2="71.6" y2="-16.1" id="D"/><line x1="71.6" y1="-16.1" x2="72.0" y2="-16.200000000000003" id="D"/><line x1="72.0" y1="-16.200000000000003" x2="72.4" y2="-16.700000000000003" id="D"/><line x1="72.4" y1="-16.700000000000003" x2="72.4" y2="-16.900000000000002" id="D"/><line x1="72.4" y1="-16.900000000000002" x2="72.5" y2="-17.200000000000003" id="D"/><line x1="72.5" y1="-17.200000000000003" x2="72.4" y2="-17.400000000000002" id="D"/><line x1="72.4" y1="-17.400000000000002" x2="72.4" y2="-17.700000000000003" id="D"/><line x1="72.4" y1="-17.700000000000003" x2="72.30000000000001" y2="-18.200000000000003" id="D"/><line x1="72.30000000000001" y1="-18.200000000000003" x2="70.30000000000001" y2="-19.000000000000004" id="D"/><line x1="70.30000000000001" y1="-19.000000000000004" x2="69.9" y2="-18.800000000000004" id="D"/><line x1="69.9" y1="-18.800000000000004" x2="69.60000000000001" y2="-18.600000000000005" id="D"/><line x1="69.60000000000001" y1="-18.600000000000005" x2="69.4" y2="-18.400000000000006" id="D"/><line x1="69.4" y1="-18.400000000000006" x2="69.4" y2="-18.100000000000005" id="D"/><line x1="61.8" y1="-10.4" x2="61.8" y2="-10.200000000000001" id="E"/><line x1="61.8" y1="-10.200000000000001" x2="61.599999999999994" y2="-10.100000000000001" id="E"/><line x1="61.599999999999994" y1="-10.100000000000001" x2="61.49999999999999" y2="-9.700000000000001" id="E"/><line x1="61.49999999999999" y1="-9.700000000000001" x2="61.49999999999999" y2="-9.4" id="E"/><line x1="61.49999999999999" y1="-9.4" x2="61.49999999999999" y2="-9.200000000000001" id="E"/><line x1="61.49999999999999" y1="-9.200000000000001" x2="61.599999999999994" y2="-8.8" id="E"/><line x1="61.599999999999994" y1="-8.8" x2="61.99999999999999" y2="-8.3" id="E"/><line x1="61.99999999999999" y1="-8.3" x2="62.599999999999994" y2="-7.700000000000001" id="E"/><line x1="62.599999999999994" y1="-7.700000000000001" x2="63.099999999999994" y2="-7.800000000000001" id="E"/><line x1="63.099999999999994" y1="-7.800000000000001" x2="63.699999999999996" y2="-7.9" id="E"/><line x1="63.699999999999996" y1="-7.9" x2="63.99999999999999" y2="-8.3" id="E"/><line x1="63.99999999999999" y1="-8.3" x2="64.39999999999999" y2="-8.4" id="E"/><line x1="64.39999999999999" y1="-8.4" x2="64.8" y2="-8.9" id="E"/><line x1="64.8" y1="-8.9" x2="64.8" y2="-9.1" id="E"/><line x1="64.8" y1="-9.1" x2="64.89999999999999" y2="-9.4" id="E"/><line x1="64.89999999999999" y1="-9.4" x2="64.8" y2="-9.6" id="E"/><line x1="64.8" y1="-9.6" x2="64.8" y2="-9.9" id="E"/><line x1="64.8" y1="-9.9" x2="64.7" y2="-10.4" id="E"/><line x1="64.7" y1="-10.4" x2="62.7" y2="-11.200000000000001" id="E"/><line x1="62.7" y1="-11.200000000000001" x2="62.300000000000004" y2="-11.000000000000002" id="E"/><line x1="62.300000000000004" y1="-11.000000000000002" x2="62.00000000000001" y2="-10.800000000000002" id="E"/><line x1="62.00000000000001" y1="-10.800000000000002" x2="61.800000000000004" y2="-10.600000000000003" id="E"/><line x1="61.800000000000004" y1="-10.600000000000003" x2="61.8" y2="-10.4" id="E"/><line x1="61.8" y1="-2.8" x2="61.8" y2="-2.5999999999999996" id="F"/><line x1="61.8" y1="-2.5999999999999996" x2="61.599999999999994" y2="-2.4999999999999996" id="F"/><line x1="61.599999999999994" y1="-2.4999999999999996" x2="61.49999999999999" y2="-2.0999999999999996" id="F"/><line x1="61.49999999999999" y1="-2.0999999999999996" x2="61.49999999999999" y2="-1.7999999999999996" id="F"/><line x1="61.49999999999999" y1="-1.7999999999999996" x2="61.49999999999999" y2="-1.5999999999999996" id="F"/><line x1="61.49999999999999" y1="-1.5999999999999996" x2="61.599999999999994" y2="-1.1999999999999997" id="F"/><line x1="61.599999999999994" y1="-1.1999999999999997" x2="61.99999999999999" y2="-0.6999999999999997" id="F"/><line x1="61.99999999999999" y1="-0.6999999999999997" x2="62.599999999999994" y2="-0.09999999999999976" id="F"/><line x1="62.599999999999994" y1="-0.09999999999999976" x2="63.099999999999994" y2="-0.19999999999999976" id="F"/><line x1="63.099999999999994" y1="-0.19999999999999976" x2="63.699999999999996" y2="-0.29999999999999977" id="F"/><line x1="63.699999999999996" y1="-0.29999999999999977" x2="63.99999999999999" y2="-0.7999999999999998" id="F"/><line x1="63.99999999999999" y1="-0.7999999999999998" x2="64.39999999999999" y2="-0.8999999999999998" id="F"/><line x1="64.39999999999999" y1="-0.8999999999999998" x2="64.8" y2="-1.4" id="F"/><line x1="64.8" y1="-1.4" x2="64.8" y2="-1.5999999999999999" id="F"/><line x1="64.8" y1="-1.5999999999999999" x2="64.89999999999999" y2="-1.9" id="F"/><line x1="64.89999999999999" y1="-1.9" x2="64.8" y2="-2.1" id="F"/><line x1="64.8" y1="-2.1" x2="64.8" y2="-2.4" id="F"/><line x1="64.8" y1="-2.4" x2="64.7" y2="-2.9" id="F"/><line x1="64.7" y1="-2.9" x2="62.7" y2="-3.7" id="F"/><line x1="62.7" y1="-3.7" x2="62.300000000000004" y2="-3.5" id="F"/><line x1="62.300000000000004" y1="-3.5" x2="62.00000000000001" y2="-3.3" id="F"/><line x1="62.00000000000001" y1="-3.3" x2="61.800000000000004" y2="-3.0999999999999996" id="F"/><line x1="61.800000000000004" y1="-3.0999999999999996" x2="61.800000000000004" y2="-2.8" id="F"/><line x1="31.1" y1="-2.8" x2="31.1" y2="-2.5999999999999996" id="G"/><line x1="31.1" y1="-2.5999999999999996" x2="30.900000000000002" y2="-2.4999999999999996" id="G"/><line x1="30.900000000000002" y1="-2.4999999999999996" x2="30.8" y2="-2.0999999999999996" id="G"/><line x1="30.8" y1="-2.0999999999999996" x2="30.8" y2="-1.7999999999999996" id="G"/><line x1="30.8" y1="-1.7999999999999996" x2="30.8" y2="-1.5999999999999996" id="G"/><line x1="30.8" y1="-1.5999999999999996" x2="30.900000000000002" y2="-1.1999999999999997" id="G"/><line x1="30.900000000000002" y1="-1.1999999999999997" x2="31.3" y2="-0.6999999999999997" id="G"/><line x1="31.3" y1="-0.6999999999999997" x2="31.900000000000002" y2="-0.09999999999999976" id="G"/><line x1="31.900000000000002" y1="-0.09999999999999976" x2="32.400000000000006" y2="-0.19999999999999976" id="G"/><line x1="32.400000000000006" y1="-0.19999999999999976" x2="33.00000000000001" y2="-0.29999999999999977" id="G"/><line x1="33.00000000000001" y1="-0.29999999999999977" x2="33.300000000000004" y2="-0.7999999999999998" id="G"/><line x1="33.300000000000004" y1="-0.7999999999999998" x2="33.7" y2="-0.8999999999999998" id="G"/><line x1="33.7" y1="-0.8999999999999998" x2="34.1" y2="-1.4" id="G"/><line x1="34.1" y1="-1.4" x2="34.1" y2="-1.5999999999999999" id="G"/><line x1="34.1" y1="-1.5999999999999999" x2="34.2" y2="-1.9" id="G"/><line x1="34.2" y1="-1.9" x2="34.1" y2="-2.1" id="G"/><line x1="34.1" y1="-2.1" x2="34.1" y2="-2.4" id="G"/><line x1="34.1" y1="-2.4" x2="34.0" y2="-2.9" id="G"/><line x1="34.0" y1="-2.9" x2="32.0" y2="-3.7" id="G"/><line x1="32.0" y1="-3.7" x2="31.6" y2="-3.5" id="G"/><line x1="31.6" y1="-3.5" x2="31.3" y2="-3.3" id="G"/><line x1="31.3" y1="-3.3" x2="31.1" y2="-3.0999999999999996" id="G"/><line x1="31.1" y1="-3.0999999999999996" x2="31.1" y2="-2.8" id="G"/></defs></svg>